# xmcd
#
# Track frame offsets:
#	183
#	16565
#	30008
#	46353
#	58550
#	72345
#	94288
#	105885
#	119270
#	132258
#	157545
#	170645
#	192213
#	212138
#	224833
#
# Disc length: 3156
#
# Revision: 1
# Processed by: cddbd v1.5.1PL0 Copyright (c) Steve Scherf et al.
# Submitted via: EasyCDDAExtractor 7.1.3.1
# Normalized: r0:DSETVAR1
#
DISCID=c20c520f
DTITLE=Various Artist - Best In Blues
DYEAR=1999
DGENRE=Blues
TTITLE0=The Blues Band - Lonely Avenue
TTITLE1=Sonny Boy Williams - Sugar Mama Blues
TTITLE2=Joe Williams - Rocks In My Bed
TTITLE3=Joe Turner - Lonesome Train
TTITLE4=Jonny Moore's Three Blazers - How Blue Can You Get
TTITLE5=Vaya Con Dios - Lulas Song
TTITLE6=Eddie Cleanhead Vinson - Cleanhead Blues
TTITLE7=The Guess Who - Instrumental
TTITLE8=Delta Rythem Boys - Dry Bones
TTITLE9=Livin Blues - Shylina
TTITLE10=Leadbelly - Good Morning Blues
TTITLE11=The Blues Band - Thats Alright
TTITLE12=Otis Spann - Moon Blues
TTITLE13=Livin Blues - The Great Grandfather
TTITLE14=Rene Hall - Two Guitar Boogie
EXTD=
EXTT0=
EXTT1=
EXTT2=
EXTT3=
EXTT4=
EXTT5=
EXTT6=
EXTT7=
EXTT8=
EXTT9=
EXTT10=
EXTT11=
EXTT12=
EXTT13=
EXTT14=
PLAYORDER=
